<svg width="210" height="71" viewBox="0 0 210 71" fill="none" xmlns="http://www.w3.org/2000/svg">
<path d="M71.6 50.4902C69.47 50.4902 67.61 50.0202 66.03 49.0702C64.45 48.1202 63.23 46.8202 62.35 45.1702C61.48 43.5102 61.04 41.6202 61.04 39.4902C61.04 37.3602 61.49 35.4402 62.37 33.7802C63.25 32.1202 64.48 30.8102 66.04 29.8702C67.6 28.9302 69.38 28.4502 71.4 28.4502C73.42 28.4502 75.29 28.9202 76.84 29.8402C78.39 30.7602 79.6 32.0502 80.48 33.7002C81.35 35.3402 81.79 37.2402 81.79 39.3802V40.9602H66.79C66.85 42.5202 67.3 43.7602 68.17 44.6902C69.03 45.6202 70.24 46.0902 71.79 46.0902C72.94 46.0902 73.89 45.8402 74.66 45.3502C75.43 44.8602 75.94 44.2002 76.21 43.3902H81.59C81.33 44.7902 80.74 46.0202 79.81 47.0902C78.88 48.1602 77.71 48.9902 76.3 49.6002C74.89 50.2102 73.33 50.5102 71.63 50.5102H71.61L71.6 50.4902ZM66.83 37.1802H76.23C76.09 35.8602 75.59 34.8202 74.76 34.0502C73.93 33.2802 72.84 32.9002 71.51 32.9002C70.18 32.9002 69.12 33.2802 68.29 34.0502C67.46 34.8202 66.97 35.8602 66.81 37.1802H66.83Z" fill="white"/>
<path d="M95.8002 50.4902C93.6702 50.4902 91.8102 50.0202 90.2302 49.0702C88.6502 48.1202 87.4302 46.8202 86.5502 45.1702C85.6802 43.5102 85.2402 41.6202 85.2402 39.4902C85.2402 37.3602 85.6902 35.4402 86.5702 33.7802C87.4502 32.1202 88.6802 30.8102 90.2402 29.8702C91.8002 28.9302 93.5802 28.4502 95.6002 28.4502C97.6202 28.4502 99.4902 28.9202 101.04 29.8402C102.59 30.7602 103.8 32.0502 104.68 33.7002C105.55 35.3402 105.99 37.2402 105.99 39.3802V40.9602H90.9902C91.0502 42.5202 91.5002 43.7602 92.3702 44.6902C93.2302 45.6202 94.4402 46.0902 95.9902 46.0902C97.1402 46.0902 98.0902 45.8402 98.8602 45.3502C99.6302 44.8602 100.14 44.2002 100.41 43.3902H105.79C105.53 44.7902 104.94 46.0202 104.01 47.0902C103.08 48.1602 101.91 48.9902 100.5 49.6002C99.0902 50.2102 97.5302 50.5102 95.8302 50.5102H95.8102L95.8002 50.4902ZM91.0202 37.1802H100.42C100.28 35.8602 99.7802 34.8202 98.9502 34.0502C98.1202 33.2802 97.0302 32.9002 95.7002 32.9002C94.3702 32.9002 93.3102 33.2802 92.4802 34.0502C91.6502 34.8202 91.1602 35.8602 91.0002 37.1802H91.0202Z" fill="white"/>
<path d="M109.45 50.4904V28.4404H115.26V32.3204H115.32C115.72 31.0104 116.34 30.0304 117.18 29.3904C118.03 28.7504 119.17 28.4404 120.6 28.4404C120.95 28.4404 121.27 28.4404 121.57 28.4604C121.86 28.4604 122.13 28.4804 122.38 28.4804V33.6904C122.16 33.6904 121.8 33.6504 121.3 33.6204C120.8 33.5904 120.29 33.5804 119.79 33.5804C118.55 33.5804 117.52 34.0104 116.71 34.8604C115.9 35.7204 115.49 36.9704 115.49 38.6104V50.4804H109.45V50.4904Z" fill="white"/>
<path d="M133.93 50.4904C131.62 50.4904 129.79 49.7504 128.41 48.2704C127.03 46.7904 126.34 44.6904 126.34 41.9604V28.4404H132.37V40.8604C132.37 42.3004 132.71 43.4104 133.41 44.1704C134.11 44.9304 135.07 45.3104 136.35 45.3104C137.63 45.3104 138.61 44.9204 139.4 44.1404C140.19 43.3604 140.59 42.1404 140.59 40.4504V28.4404H146.6V50.4904H140.69V46.6404C139.95 47.8704 139.04 48.8204 137.93 49.4804C136.82 50.1404 135.5 50.4904 133.94 50.4904H133.93Z" fill="white"/>
<path d="M189.74 20.0098V50.4998H183.44V20.0098H189.74Z" fill="white"/>
<path d="M150.55 50.49L161.04 20H168.98L179.47 50.49H172.63L170.54 43.84H159.37L157.21 50.49H150.55ZM161.04 38.81H168.94L167.94 35.66C167.47 34.11 167.01 32.52 166.53 30.92C166.06 29.31 165.56 27.55 165.03 25.66C164.5 27.56 163.99 29.31 163.51 30.92C163.02 32.53 162.55 34.11 162.06 35.66L161.04 38.81Z" fill="white"/>
<mask id="mask0_5983_12757" style="mask-type:luminance" maskUnits="userSpaceOnUse" x="34" y="20" width="24" height="31">
<path d="M49.0497 20H57.5797V50.49H49.0497L49.0697 37.16L42.4197 50.52H35.8797L34.2197 47.69L49.0497 20Z" fill="white"/>
</mask>
<g mask="url(#mask0_5983_12757)">
<path d="M32.2598 50.4902H59.5498V48.4502H32.2598" fill="#F16922"/>
<path d="M32.2598 22.04H59.5498V20H32.2598" fill="#F16922"/>
<path d="M32.2598 24.8898H59.5498V22.8398H32.2598" fill="#F16922"/>
<path d="M32.2598 27.7304H59.5498V25.6904H32.2598" fill="#F16922"/>
<path d="M32.2598 30.5799H59.5498V28.4199H32.2598" fill="#F16922"/>
<path d="M32.2598 33.4199H59.5498V31.3799H32.2598" fill="#F16922"/>
<path d="M32.2598 36.2697H59.5498V34.2197H32.2598" fill="#F16922"/>
<path d="M32.2598 39.1103H59.5498V37.0703H32.2598" fill="#F16922"/>
<path d="M32.2598 41.9602H59.5498V39.9102H32.2598" fill="#F16922"/>
<path d="M32.2598 44.7998H59.5498V42.7598H32.2598" fill="#F16922"/>
<path d="M32.2598 47.6496H59.5498V45.5996H32.2598" fill="#F16922"/>
</g>
<path d="M28.53 20.0195H20V50.5195H28.53V37.9795L35.88 50.5195H42.42L43.64 48.0695L28.53 20.0195Z" fill="#F16922"/>
</svg>
