<?xml version="1.0" encoding="UTF-8"?>
<svg id="Layer_1" xmlns="http://www.w3.org/2000/svg" xmlns:xlink="http://www.w3.org/1999/xlink" version="1.1" viewBox="0 0 209.74 70.49">
  
  <defs>
    
    <clipPath id="clippath">
      <polygon class="st0" points="49.05 20 57.58 20 57.58 50.49 49.05 50.49 49.07 37.16 42.42 50.52 35.88 50.52 34.22 47.69 49.05 20"></polygon>
    </clipPath>
  </defs>
  <path d="M71.6,50.49c-2.13,0-3.99-.47-5.57-1.42s-2.8-2.25-3.68-3.9c-.87-1.66-1.31-3.55-1.31-5.68s.45-4.05,1.33-5.71,2.11-2.97,3.67-3.91,3.34-1.42,5.36-1.42,3.89.47,5.44,1.39c1.55.92,2.76,2.21,3.64,3.86.87,1.64,1.31,3.54,1.31,5.68v1.58h-15c.06,1.56.51,2.8,1.38,3.73.86.93,2.07,1.4,3.62,1.4,1.15,0,2.1-.25,2.87-.74s1.28-1.15,1.55-1.96h5.38c-.26,1.4-.85,2.63-1.78,3.7s-2.1,1.9-3.51,2.51-2.97.91-4.67.91h-.02ZM66.83,37.18h9.4c-.14-1.32-.64-2.36-1.47-3.13s-1.92-1.15-3.25-1.15-2.39.38-3.22,1.15-1.32,1.81-1.48,3.13h.02Z"></path>
  <path d="M95.8,50.49c-2.13,0-3.99-.47-5.57-1.42s-2.8-2.25-3.68-3.9c-.87-1.66-1.31-3.55-1.31-5.68s.45-4.05,1.33-5.71,2.11-2.97,3.67-3.91,3.34-1.42,5.36-1.42,3.89.47,5.44,1.39c1.55.92,2.76,2.21,3.64,3.86.87,1.64,1.31,3.54,1.31,5.68v1.58h-15c.06,1.56.51,2.8,1.38,3.73.86.93,2.07,1.4,3.62,1.4,1.15,0,2.1-.25,2.87-.74s1.28-1.15,1.55-1.96h5.38c-.26,1.4-.85,2.63-1.78,3.7s-2.1,1.9-3.51,2.51-2.97.91-4.67.91h-.02ZM91.02,37.18h9.4c-.14-1.32-.64-2.36-1.47-3.13s-1.92-1.15-3.25-1.15-2.39.38-3.22,1.15-1.32,1.81-1.48,3.13h.02Z"></path>
  <path d="M109.45,50.49v-22.05h5.81v3.88h.06c.4-1.31,1.02-2.29,1.86-2.93.85-.64,1.99-.95,3.42-.95.35,0,.67,0,.97.02.29,0,.56.02.81.02v5.21c-.22,0-.58-.04-1.08-.07s-1.01-.04-1.51-.04c-1.24,0-2.27.43-3.08,1.28-.81.86-1.22,2.11-1.22,3.75v11.87h-6.04Z"></path>
  <path d="M133.93,50.49c-2.31,0-4.14-.74-5.52-2.22-1.38-1.48-2.07-3.58-2.07-6.31v-13.52h6.03v12.42c0,1.44.34,2.55,1.04,3.31s1.66,1.14,2.94,1.14,2.26-.39,3.05-1.17,1.19-2,1.19-3.69v-12.01h6.01v22.05h-5.91v-3.85c-.74,1.23-1.65,2.18-2.76,2.84s-2.43,1.01-3.99,1.01h0Z"></path>
  <path d="M189.74,20.01v30.49h-6.3v-30.49h6.3Z"></path>
  <path d="M150.55,50.49l10.49-30.49h7.94l10.49,30.49h-6.84l-2.09-6.65h-11.17l-2.16,6.65h-6.66ZM161.04,38.81h7.9l-1-3.15c-.47-1.55-.93-3.14-1.41-4.74-.47-1.61-.97-3.37-1.5-5.26-.53,1.9-1.04,3.65-1.52,5.26-.49,1.61-.96,3.19-1.45,4.74l-1.02,3.15Z"></path>
  <g>
    <g class="st2">
      <g>
        <polyline class="st1" points="32.26 50.49 59.55 50.49 59.55 48.45 32.26 48.45"></polyline>
        <polyline class="st1" points="32.26 22.04 59.55 22.04 59.55 20 32.26 20"></polyline>
        <polyline class="st1" points="32.26 24.89 59.55 24.89 59.55 22.84 32.26 22.84"></polyline>
        <polyline class="st1" points="32.26 27.73 59.55 27.73 59.55 25.69 32.26 25.69"></polyline>
        <polyline class="st1" points="32.26 30.58 59.55 30.58 59.55 28.42 32.26 28.42"></polyline>
        <polyline class="st1" points="32.26 33.42 59.55 33.42 59.55 31.38 32.26 31.38"></polyline>
        <polyline class="st1" points="32.26 36.27 59.55 36.27 59.55 34.22 32.26 34.22"></polyline>
        <polyline class="st1" points="32.26 39.11 59.55 39.11 59.55 37.07 32.26 37.07"></polyline>
        <polyline class="st1" points="32.26 41.96 59.55 41.96 59.55 39.91 32.26 39.91"></polyline>
        <polyline class="st1" points="32.26 44.8 59.55 44.8 59.55 42.76 32.26 42.76"></polyline>
        <polyline class="st1" points="32.26 47.65 59.55 47.65 59.55 45.6 32.26 45.6"></polyline>
      </g>
    </g>
    <polygon class="st1" points="28.53 20.02 20 20.02 20 50.52 28.53 50.52 28.53 37.98 35.88 50.52 42.42 50.52 43.64 48.07 28.53 20.02"></polygon>
  </g>
</svg>